<svg version="1.1" id="Layer_1" xmlns="http://www.w3.org/2000/svg" xmlns:xlink="http://www.w3.org/1999/xlink" x="0px" y="0px"
	 width="100%" viewBox="0 0 1024 1024" enable-background="new 0 0 1024 1024" xml:space="preserve">
<path fill="#000000" opacity="1.000000" stroke="none" 
	d="
M550.165955,465.810547 
	C539.598389,457.258301 528.152771,456.561676 516.579590,461.777344 
	C504.261108,467.328979 498.504272,477.894867 498.434021,491.067780 
	C498.209106,533.228821 498.397461,575.391846 498.330414,617.553955 
	C498.308655,631.230103 499.918823,629.178772 486.733490,629.248108 
	C470.569000,629.333130 454.403656,629.263611 438.238678,629.253296 
	C431.939972,629.249329 431.734955,629.070312 431.732971,622.846313 
	C431.718964,579.017456 431.536621,535.187317 431.824524,491.360382 
	C431.913269,477.855499 421.352844,461.166626 404.959259,458.738464 
	C390.640320,456.617584 374.460663,465.861115 370.397858,479.784668 
	C368.995453,484.590759 368.260681,489.458801 368.272583,494.538361 
	C368.372498,537.200378 368.320160,579.862854 368.308197,622.525146 
	C368.306305,629.306274 368.282074,629.305481 361.765045,629.298035 
	C343.766968,629.277344 325.767822,629.160217 307.771515,629.331177 
	C303.281433,629.373901 301.656281,628.029236 301.663361,623.342041 
	C301.774689,549.683105 301.761017,476.023895 301.638306,402.364960 
	C301.631165,398.082825 303.161224,396.915314 307.171021,396.944885 
	C325.501282,397.080139 343.834320,397.113892 362.163666,396.923706 
	C366.906616,396.874512 368.695801,398.380890 368.443695,403.261261 
	C368.239227,407.219391 367.310516,411.466522 369.451385,415.232269 
	C372.009064,415.269318 372.983307,413.474701 374.298248,412.329742 
	C391.648926,397.221710 411.903229,392.783630 434.331573,395.350128 
	C451.903778,397.360962 466.322205,405.107758 478.024353,418.071411 
	C480.863617,421.216705 482.811279,420.568176 485.365875,418.054138 
	C494.658569,408.909027 505.364746,402.045929 517.951294,398.323975 
	C525.479126,396.097900 533.111511,394.637726 541.021606,394.655762 
	C568.352051,394.718170 595.682739,394.704468 623.013245,394.669403 
	C642.303528,394.644684 657.443604,379.391663 657.759033,360.135956 
	C657.957764,347.999573 656.506897,335.791443 658.633789,323.735229 
	C660.953003,310.589142 673.047363,300.103363 686.336670,299.759796 
	C697.494751,299.471313 708.666626,299.756561 719.830933,299.643738 
	C723.222351,299.609497 724.646240,300.887817 724.612854,304.334564 
	C724.441833,321.994141 724.416138,339.655090 724.281311,357.315094 
	C724.127136,377.515625 719.785156,396.711548 709.124695,414.008057 
	C692.246643,441.392426 667.944092,457.370331 635.580200,460.393372 
	C633.759644,460.563446 631.954468,460.896515 630.141296,461.147644 
	C627.364807,461.532166 626.063904,463.015350 626.310852,465.911896 
	C630.677307,517.136169 627.326172,568.460999 628.266296,619.731018 
	C628.451721,629.843140 630.488953,629.298706 618.816895,629.278015 
	C601.818787,629.247864 584.816406,629.085083 567.824951,629.429810 
	C562.823669,629.531189 561.603027,627.904358 561.617371,623.209412 
	C561.750488,579.547607 561.670349,535.885193 561.708801,492.222992 
	C561.717957,481.830627 558.324646,472.994568 550.165955,465.810547 
z"/>
<path fill="#000000" opacity="1.000000" stroke="none" 
	d="
M671.889099,719.041016 
	C660.090881,724.297424 648.040588,726.287476 635.580383,726.259155 
	C621.585083,726.227356 607.589600,726.267212 593.594238,726.252563 
	C575.322266,726.233398 561.206543,713.979065 559.725403,696.876648 
	C558.114990,678.281555 569.708923,663.373108 588.508057,660.560486 
	C602.567200,658.456970 616.801086,659.467712 630.913452,659.832153 
	C649.841736,660.321045 657.766907,647.545105 657.743225,632.901184 
	C657.657715,580.085449 657.788086,527.269165 657.585938,474.454041 
	C657.565125,469.026184 658.872375,466.191803 664.281738,464.187073 
	C688.512207,455.207245 706.555359,438.779236 719.552063,416.614166 
	C720.393066,415.179901 721.226501,413.740417 722.112671,412.334351 
	C722.262024,412.097229 722.663330,412.018799 723.009949,411.834229 
	C725.058899,412.802734 724.246948,414.714386 724.247437,416.194458 
	C724.272583,489.669952 724.365112,563.145813 724.139954,636.620667 
	C724.087769,653.649170 720.088196,669.835449 711.398193,684.806091 
	C702.169861,700.704285 689.169189,711.983032 671.889099,719.041016 
z"/>
</svg>